<svg class="svg-icon" style="width: 1em; height: 1em;vertical-align: middle;fill: currentColor;overflow: hidden;" viewBox="0 0 1024 1024" version="1.1" xmlns="http://www.w3.org/2000/svg"><path d="M210.346667 210.346667A425.344 425.344 0 0 0 85.333333 512c0 117.76 47.786667 224.426667 125.013334 301.653333l60.16-60.16A338.688 338.688 0 0 1 170.666667 512c0-94.293333 37.973333-180.053333 99.84-241.493333L210.346667 210.346667m603.306666 0l-60.16 60.16A339.413333 339.413333 0 0 1 853.333333 512c0 94.72-37.973333 180.053333-99.84 241.493333l60.16 60.16A425.344 425.344 0 0 0 938.666667 512c0-117.76-47.786667-224.426667-125.013334-301.653333M331.093333 331.093333A255.146667 255.146667 0 0 0 256 512c0 70.4 28.586667 134.4 75.093333 180.906667l60.16-60.16A170.24 170.24 0 0 1 341.333333 512c0-47.36 19.2-90.026667 49.92-120.746667L331.093333 331.093333m361.813334 0l-60.16 60.16A170.24 170.24 0 0 1 682.666667 512c0 47.36-19.2 90.026667-49.92 120.746667l60.16 60.16A255.146667 255.146667 0 0 0 768 512c0-70.4-28.586667-134.4-75.093333-180.906667M512 426.666667a85.333333 85.333333 0 0 0-85.333333 85.333333 85.333333 85.333333 0 0 0 85.333333 85.333333 85.333333 85.333333 0 0 0 85.333333-85.333333 85.333333 85.333333 0 0 0-85.333333-85.333333z"  /></svg>