<svg width="30" height="32" xmlns="http://www.w3.org/2000/svg">

 <g>
  <title>background</title>
  <rect fill="none" id="canvas_background" height="602" width="802" y="-1" x="-1"/>
 </g>
 <g>
  <title>Layer 1</title>
  <path id="svg_1" d="m22.081,27.85c-0.475,-2.125 -1.681,-4.438 -3.425,-5.9c1.756,-1.3 2.9,-3.375 2.9,-5.725c0,-3.931 -3.194,-7.125 -7.125,-7.125s-7.125,3.194 -7.125,7.125c0,2.344 1.144,4.419 2.887,5.719c-1.75,1.456 -2.956,3.775 -3.431,5.906c-0.138,0.613 -0.213,1.206 -0.225,1.756l0.287,0l0,0.012l15.481,-0.012c-0.012,-0.556 -0.087,-1.144 -0.225,-1.756l0.001,0zm-12.806,-11.619c0,-2.844 2.313,-5.156 5.156,-5.156s5.156,2.313 5.156,5.156c0,2.844 -2.313,5.15 -5.156,5.15s-5.156,-2.313 -5.156,-5.15zm2.406,6.569c0.844,0.356 1.775,0.55 2.75,0.55c0.969,0 1.894,-0.194 2.737,-0.55c1.656,1.113 2.869,3.256 3.344,5.238l-12.181,0c0.475,-1.981 1.694,-4.125 3.35,-5.238z"/>
 </g>
</svg>